<?xml version="1.0" standalone="no"?><!DOCTYPE svg PUBLIC "-//W3C//DTD SVG 1.1//EN" "http://www.w3.org/Graphics/SVG/1.1/DTD/svg11.dtd"><svg t="1540796970050" class="icon" style="" viewBox="0 0 1024 1024" version="1.1" xmlns="http://www.w3.org/2000/svg" p-id="2630" xmlns:xlink="http://www.w3.org/1999/xlink" width="64" height="64"><defs><style type="text/css"></style></defs><path d="M0 512a512 512 0 1 0 1024 0A512 512 0 1 0 0 512z" fill="#F76363" p-id="2631"></path><path d="M176.552 564.966a35.31 35.31 0 0 1-35.31-35.31c0-136.299 110.874-247.173 247.172-247.173h247.172a35.31 35.31 0 0 1 0 70.62H388.414c-97.35 0-176.552 79.202-176.552 176.552a35.31 35.31 0 0 1-35.31 35.31z" fill="#FFFFFF" p-id="2632"></path><path d="M459.07 494.345a35.31 35.31 0 0 1-20.816-63.859l154.96-112.693L438.272 205.1a35.293 35.293 0 1 1 41.56-57.097l233.437 169.79-233.472 169.79a35.063 35.063 0 0 1-20.727 6.762zM617.93 741.517H370.759a35.31 35.31 0 0 1 0-70.62H617.93c97.35 0 176.552-79.202 176.552-176.552a35.31 35.31 0 0 1 70.62 0c0 136.298-110.874 247.172-247.172 247.172z" fill="#FFFFFF" p-id="2633"></path><path d="M547.275 882.759c-7.186 0-14.46-2.19-20.745-6.762l-233.454-169.79 233.472-169.79a35.293 35.293 0 1 1 41.56 57.097L413.131 706.207 568.073 818.9a35.293 35.293 0 0 1-20.798 63.859z" fill="#FFFFFF" p-id="2634"></path></svg>